{"title":"Outsiders S01E13 LONG LIVE THE BREN'IN HDTV SWESUB 2016","uid":14381198,"size":415272099,"categoryP":"video","categoryS":"hd___tv_shows","magnet":"?xt=urn:btih:fc01c32deebd54a8280ea1c272f41b9c3f033ce6&amp;dn=Outsiders+S01E13+LONG+LIVE+THE+BREN%27IN+HDTV+SWESUB+2016&amp;tr=udp%3A%2F%2Ftracker.leechers-paradise.org%3A6969&amp;tr=udp%3A%2F%2Fzer0day.ch%3A1337&amp;tr=udp%3A%2F%2Fopen.demonii.com%3A1337&amp;tr=udp%3A%2F%2Ftracker.coppersurfer.tk%3A6969&amp;tr=udp%3A%2F%2Fexodus.desync.com%3A6969","seeders":1,"leechers":0,"uploader":"hoyabella","files":1,"time":1461231349,"description":"\n\r\n\r\n           Outsiders S01E13 LONG LIVE THE BREN'IN HDTV SWESUB 2016\r\n\r\n\r\n                   http://www.imdb.com/title/tt4996382/\r\n\r\n\r\n\r\n\r\n\r\nGeneral\r\nComplete name               : E:VideoOutsiders S01E13 LONG LIVE THE BREN'IN HDTV SWESUB 2016Outsiders S01E13 LONG LIVE THE BREN'IN HDTV SWESUB 2016.mp4\r\nFormat                      : MPEG-4\r\nFormat profile              : Base Media\r\nCodec ID                    : isom (isom/iso2/mp41)\r\nFile size                   : 396 MiB\r\nDuration                    : 44mn 43s\r\nOverall bit rate mode       : Variable\r\nOverall bit rate            : 1 238 Kbps\r\nEncoded date                : UTC 2016-04-21 07:26:18\r\nTagged date                 : UTC 2016-04-21 07:26:18\r\nWriting application         : Lavf51.12.1\r\n\r\nVideo\r\nID                          : 1\r\nFormat                      : MPEG-4 Visual\r\nFormat profile              :   \r\nFormat settings, BVOP       : No\r\nFormat settings, QPel       : No\r\nFormat settings, GMC        : No warppoints\r\nFormat settings, Matrix     : Default (H.263)\r\nCodec ID                    : 20\r\nDuration                    : 44mn 43s\r\nBit rate                    : 1 082 Kbps\r\nWidth                       : 624 pixels\r\nHeight                      : 352 pixels\r\nDisplay aspect ratio        : 16:9\r\nFrame rate mode             : Constant\r\nFrame rate                  : 23.976 (24000/1001) fps\r\nColor space                 : YUV\r\nChroma subsampling          : 4:2:0\r\nBit depth                   : 8 bits\r\nScan type                   : Progressive\r\nCompression mode            : Lossy\r\nBits/(Pixel*Frame)          : 0.205\r\nStream size                 : 346 MiB (87%)\r\nWriting library             : Lavc51.40.4\r\nEncoded date                : UTC 2016-04-21 07:26:18\r\nTagged date                 : UTC 2016-04-21 07:26:18\r\n\r\nAudio\r\nID                          : 2\r\nFormat                      : AAC\r\nFormat/Info                 : Advanced Audio Codec\r\nFormat profile              : LC\r\nCodec ID                    : 40\r\nDuration                    : 44mn 43s\r\nBit rate mode               : Variable\r\nBit rate                    : 152 Kbps\r\nChannel(s)                  : 2 channels\r\nChannel positions           : Front: L R\r\nSampling rate               : 44.1 KHz\r\nFrame rate                  : 43.066 fps (1024 spf)\r\nCompression mode            : Lossy\r\nStream size                 : 48.6 MiB (12%)\r\nEncoded date                : UTC 2016-04-21 07:26:18\r\nTagged date                 : UTC 2016-04-21 07:26:18","torrent":{"xt":"urn:btih:fc01c32deebd54a8280ea1c272f41b9c3f033ce6","amp;dn":"Outsiders+S01E13+LONG+LIVE+THE+BREN%27IN+HDTV+SWESUB+2016","amp;tr":["udp%3A%2F%2Ftracker.leechers-paradise.org%3A6969","udp%3A%2F%2Fzer0day.ch%3A1337","udp%3A%2F%2Fopen.demonii.com%3A1337","udp%3A%2F%2Ftracker.coppersurfer.tk%3A6969","udp%3A%2F%2Fexodus.desync.com%3A6969"],"infoHash":"fc01c32deebd54a8280ea1c272f41b9c3f033ce6","infoHashBuffer":{"type":"Buffer","data":[252,1,195,45,238,189,84,168,40,14,161,194,114,244,27,156,63,3,60,230]},"announce":[],"urlList":[]}}